<svg width="402" height="358" viewBox="0 0 402 358" fill="none" xmlns="http://www.w3.org/2000/svg">
<g clip-path="url(#clip0_19_42)">
<path d="M157.917 -0.271021C158.735 -0.27667 158.735 -0.27667 159.569 -0.282432C161.387 -0.292394 163.203 -0.287456 165.021 -0.282469C166.327 -0.286458 167.634 -0.291328 168.941 -0.297011C172.484 -0.309548 176.027 -0.308733 179.57 -0.304743C182.53 -0.302581 185.49 -0.306841 188.45 -0.311063C195.434 -0.320882 202.417 -0.319794 209.401 -0.311831C216.601 -0.303803 223.801 -0.313646 231.002 -0.332385C237.188 -0.347883 243.375 -0.352518 249.562 -0.348414C253.255 -0.346058 256.948 -0.347744 260.64 -0.359777C264.114 -0.3706 267.586 -0.36782 271.059 -0.354669C272.332 -0.352094 273.605 -0.35426 274.877 -0.361582C276.619 -0.370833 278.359 -0.362732 280.1 -0.3504C281.56 -0.350181 281.56 -0.350181 283.049 -0.349957C287.469 0.213027 290.381 1.74978 293.158 4.93828C294.822 7.61816 295.316 9.49364 295.295 12.5068C295.293 13.1625 295.29 13.8182 295.288 14.4938C295.281 15.1766 295.275 15.8593 295.268 16.5628C295.264 17.2537 295.261 17.9445 295.257 18.6564C295.248 20.3621 295.235 22.0678 295.219 23.7735C296.185 23.7657 297.151 23.758 298.147 23.75C307.272 23.679 316.398 23.6266 325.523 23.5924C330.215 23.5741 334.906 23.5495 339.597 23.5097C344.127 23.4716 348.658 23.4508 353.189 23.4418C354.914 23.4354 356.639 23.4228 358.363 23.4038C360.788 23.3783 363.211 23.375 365.636 23.3766C366.341 23.364 367.047 23.3515 367.775 23.3385C373.864 23.3821 378.814 25.2168 383.5 28.6871C383.905 29.1279 384.309 29.5686 384.727 30.0228C385.358 30.6812 385.358 30.6812 386.002 31.3529C388.243 34.4881 388.849 37.5788 388.857 41.2463C388.865 42.4872 388.865 42.4872 388.873 43.7532C388.871 44.6558 388.87 45.5584 388.868 46.4883C388.871 47.4618 388.875 48.4353 388.88 49.4088C388.891 52.0804 388.893 54.752 388.892 57.4236C388.893 60.3064 388.904 63.1891 388.913 66.0719C388.931 72.3735 388.937 78.6752 388.941 84.9769C388.943 88.9126 388.949 92.8484 388.954 96.7841C388.97 107.684 388.982 118.584 388.985 129.484C388.985 130.181 388.985 130.879 388.985 131.597C388.985 133.011 388.986 134.425 388.986 135.838C388.986 136.54 388.986 137.242 388.986 137.965C388.987 139.019 388.987 139.019 388.987 140.094C388.99 151.478 389.011 162.863 389.04 174.248C389.07 185.94 389.085 197.633 389.086 209.325C389.086 215.889 389.093 222.452 389.115 229.015C389.135 234.604 389.14 240.192 389.129 245.781C389.123 248.631 389.124 251.481 389.141 254.331C389.158 256.943 389.156 259.555 389.139 262.167C389.135 263.553 389.15 264.94 389.166 266.326C389.104 272.305 387.985 277.179 383.371 281.721C377.557 286.712 370.898 286.983 363.227 286.918C362.269 286.918 361.31 286.918 360.323 286.919C357.713 286.918 355.104 286.907 352.494 286.892C349.76 286.879 347.026 286.878 344.292 286.876C339.123 286.869 333.954 286.852 328.785 286.831C322.897 286.807 317.009 286.796 311.12 286.785C299.015 286.763 286.91 286.727 274.805 286.68C274.231 294.987 274.231 294.987 276.938 302.682C278.828 304.166 280.694 305.263 282.886 306.367C283.623 306.791 284.36 307.214 285.12 307.651C287.46 308.982 289.838 310.241 292.225 311.502C293.812 312.387 295.395 313.277 296.975 314.171C299.875 315.803 302.79 317.409 305.73 318.984C306.357 319.324 306.985 319.664 307.631 320.014C308.691 320.585 309.756 321.149 310.828 321.701C312.792 322.759 313.974 323.601 315.127 325.386C316.156 329.147 315.889 332.999 315.878 336.849C315.891 337.714 315.903 338.579 315.917 339.471C315.92 345.344 315.697 350.509 311.364 355.159C308.41 357.277 306.359 358.174 302.551 358.18C301.815 358.184 301.079 358.189 300.32 358.194C299.514 358.191 298.707 358.189 297.877 358.187C297.018 358.19 296.159 358.193 295.275 358.197C292.387 358.206 289.5 358.204 286.613 358.203C284.547 358.207 282.481 358.212 280.415 358.217C275.38 358.229 270.345 358.233 265.31 358.234C261.217 358.234 257.124 358.237 253.032 358.242C241.43 358.254 229.828 358.26 218.226 358.259C217.601 358.259 216.975 358.259 216.331 358.259C215.705 358.259 215.078 358.259 214.433 358.259C204.282 358.258 194.131 358.272 183.98 358.292C173.558 358.312 163.137 358.321 152.715 358.32C146.863 358.32 141.012 358.323 135.16 358.338C130.179 358.351 125.197 358.354 120.215 358.345C117.673 358.34 115.132 358.342 112.59 358.352C109.834 358.363 107.079 358.357 104.323 358.346C103.52 358.353 102.717 358.36 101.89 358.368C97.2363 358.327 94.6424 357.929 91.0782 355.203C85.4487 350.051 86.1023 343.741 86.1219 336.98C86.1092 336.103 86.0966 335.227 86.0835 334.324C86.083 333.476 86.0825 332.628 86.082 331.755C86.0796 330.988 86.0773 330.221 86.0749 329.43C86.5093 326.167 87.3428 324.059 90.2516 321.909C92.2646 320.638 94.317 319.446 96.3994 318.267C97.1555 317.828 97.9115 317.389 98.6904 316.937C101.103 315.538 103.524 314.154 105.947 312.769C108.365 311.375 110.78 309.977 113.195 308.579C114.697 307.712 116.201 306.846 117.707 305.983C118.391 305.591 119.075 305.199 119.779 304.795C120.379 304.452 120.978 304.109 121.596 303.756C122.148 303.428 122.701 303.1 123.27 302.762C124.084 302.313 124.084 302.313 124.915 301.855C126.548 300.779 126.548 300.779 126.839 299.142C126.855 298.567 126.872 297.992 126.889 297.4C126.914 296.776 126.939 296.152 126.965 295.509C126.976 294.859 126.988 294.21 126.999 293.541C127.022 292.883 127.046 292.226 127.07 291.548C127.125 289.925 127.166 288.303 127.195 286.68C126.695 286.682 126.195 286.684 125.68 286.686C113.497 286.732 101.314 286.767 89.1314 286.788C83.2397 286.799 77.3482 286.814 71.4565 286.838C66.3197 286.859 61.1828 286.872 56.0459 286.877C53.3275 286.88 50.6093 286.886 47.8909 286.902C44.8516 286.918 41.8126 286.919 38.7733 286.918C37.8781 286.925 36.983 286.933 36.0607 286.941C29.3265 286.917 23.6461 286.028 18.6287 281.721C13.197 276.373 12.7826 270.545 12.8545 263.624C12.8505 262.647 12.8448 261.671 12.8376 260.695C12.8228 258.028 12.8323 255.362 12.846 252.695C12.8565 249.812 12.8444 246.93 12.8351 244.048C12.8207 238.408 12.8274 232.769 12.8415 227.129C12.8525 222.545 12.8556 217.961 12.8529 213.377C12.8525 212.723 12.8522 212.07 12.8518 211.397C12.851 210.07 12.8502 208.743 12.8493 207.416C12.8426 195.691 12.8557 183.965 12.879 172.239C12.9016 160.867 12.9072 149.495 12.8951 138.123C12.8819 125.731 12.8788 113.34 12.8925 100.949C12.894 99.6267 12.8954 98.3049 12.8968 96.9831C12.8976 96.3328 12.8983 95.6825 12.899 95.0125C12.9034 90.4346 12.9008 85.8567 12.8956 81.2787C12.8896 75.6987 12.8949 70.1187 12.9146 64.5386C12.9244 61.6928 12.9293 58.8471 12.9205 56.0013C12.9126 53.394 12.9193 50.7871 12.9374 48.1798C12.9434 46.7946 12.934 45.4092 12.924 44.024C12.984 38.2742 13.7957 33.6827 17.9758 29.1542C18.4728 28.7919 18.9697 28.4295 19.4817 28.0562C19.9726 27.6831 20.4635 27.3099 20.9692 26.9254C26.5195 23.6752 30.8029 23.5407 37.3089 23.804C39.1688 23.8591 41.0288 23.9135 42.8887 23.9673C43.8714 23.999 44.8541 24.0307 45.8665 24.0634C48.9702 24.1544 52.0734 24.2174 55.1781 24.2659C55.9691 24.2783 55.9691 24.2783 56.776 24.291C58.9511 24.3246 61.1262 24.3571 63.3012 24.3894C69.4226 24.4821 75.5373 24.6091 81.6542 24.8402C109.598 26.7802 109.598 26.7802 133.949 16.9901C137.976 13.4992 141.597 9.64707 144.735 5.4942C148.23 0.893028 151.798 -0.260334 157.917 -0.271021ZM160.957 12.586C160.698 21.5849 160.439 30.5839 160.172 39.8555C155.304 46.3583 155.304 46.3583 149.965 47.5469C140.378 47.7777 130.791 48.0084 120.914 48.2461C120.914 99.2402 120.914 150.234 120.914 202.773C173.771 202.773 226.628 202.773 281.086 202.773C281.086 140.012 281.086 77.2497 281.086 12.586C241.443 12.586 201.801 12.586 160.957 12.586ZM142.699 24.5574C142.029 25.1536 141.358 25.7498 140.667 26.3641C139.962 26.9946 139.257 27.6251 138.531 28.2747C137.823 28.9025 137.115 29.5303 136.386 30.1771C135.716 30.7742 135.047 31.3713 134.357 31.9866C133.427 32.816 133.427 32.8159 132.478 33.6621C131.032 34.7506 131.032 34.7506 131.121 35.6602C136.303 35.6602 141.485 35.6602 146.824 35.6602C146.824 31.0454 146.824 26.4305 146.824 21.6758C145.203 21.6758 143.743 23.6286 142.699 24.5574ZM27.4805 39.1563C26.8926 41.635 26.9683 44.0818 27.0084 46.6067C27.005 47.3725 27.0017 48.1382 26.9982 48.9272C26.9917 51.5103 27.0134 54.0926 27.0348 56.6757C27.036 58.5523 27.0357 60.4288 27.0334 62.3054C27.0313 66.8297 27.0494 71.3538 27.0746 75.878C27.1029 81.1106 27.106 86.3429 27.1091 91.5755C27.1297 105.393 27.1845 119.209 27.2351 133.026C27.3161 163.888 27.3971 194.75 27.4805 226.547C142.003 226.547 256.526 226.547 374.52 226.547C374.601 195.685 374.681 164.823 374.765 133.026C374.801 123.269 374.836 113.511 374.873 103.458C374.886 94.7385 374.886 94.7385 374.894 86.0193C374.898 82.1247 374.912 78.2303 374.934 74.3357C374.959 69.8471 374.97 65.3587 374.965 60.8701C374.963 58.5725 374.969 56.2754 374.988 53.9779C375.007 51.5205 375.002 49.0641 374.992 46.6067C375.003 45.8859 375.015 45.1652 375.026 44.4225C375.035 40.5167 375.035 40.5167 372.736 37.3132C370.675 36.3955 369.53 36.0125 367.26 36.0231C366.621 36.0192 365.981 36.0154 365.322 36.0114C364.286 36.0265 364.286 36.0265 363.229 36.0419C362.493 36.0415 361.757 36.0411 360.999 36.0407C358.573 36.0426 356.148 36.0644 353.722 36.0863C352.038 36.0915 350.353 36.0955 348.669 36.0983C344.24 36.109 339.812 36.1364 335.383 36.1674C330.862 36.196 326.341 36.2088 321.821 36.2229C312.953 36.2528 304.086 36.3006 295.219 36.3594C295.219 40.0513 295.219 43.7432 295.219 47.5469C297.78 47.5567 297.78 47.5567 300.393 47.5667C306.047 47.5904 311.7 47.6292 317.353 47.6755C320.78 47.7031 324.206 47.7256 327.632 47.7364C330.942 47.747 334.25 47.7711 337.56 47.8045C338.819 47.8148 340.079 47.8204 341.339 47.8209C343.11 47.8226 344.879 47.8416 346.65 47.8644C347.656 47.8707 348.662 47.8769 349.698 47.8833C352.996 48.3051 355.566 49.0048 358.031 51.043C361.046 54.8574 361.627 57.6319 361.571 62.2316C361.578 63.1586 361.578 63.1586 361.586 64.1043C361.598 66.1667 361.588 68.2284 361.578 70.2908C361.583 71.7727 361.588 73.2546 361.595 74.7365C361.609 78.7555 361.604 82.7743 361.594 86.7933C361.586 91 361.593 95.2067 361.598 99.4135C361.604 106.477 361.596 113.54 361.581 120.604C361.564 128.77 361.57 136.937 361.587 145.103C361.601 152.116 361.603 159.128 361.595 166.141C361.59 170.329 361.59 174.517 361.6 178.704C361.609 182.641 361.603 186.577 361.585 190.514C361.58 191.959 361.582 193.404 361.589 194.848C361.597 196.82 361.586 198.792 361.571 200.763C361.581 201.622 361.581 201.622 361.592 202.497C361.535 206.169 360.755 208.25 358.031 211.164C353.62 214.192 350.622 214.747 345.151 214.752C344.646 214.754 344.14 214.755 343.619 214.756C341.919 214.76 340.218 214.759 338.517 214.758C337.289 214.76 336.06 214.762 334.831 214.765C331.448 214.77 328.066 214.772 324.683 214.772C321.037 214.773 317.391 214.779 313.745 214.783C305.77 214.793 297.796 214.797 289.821 214.8C284.842 214.802 279.864 214.805 274.885 214.808C261.105 214.817 247.324 214.824 233.544 214.826C232.22 214.827 232.22 214.827 230.87 214.827C229.986 214.827 229.102 214.827 228.191 214.827C226.399 214.828 224.607 214.828 222.815 214.828C221.482 214.828 221.482 214.828 220.121 214.829C205.717 214.831 191.312 214.844 176.907 214.86C162.122 214.876 147.337 214.885 132.552 214.886C124.249 214.887 115.946 214.891 107.643 214.903C100.574 214.914 93.504 214.918 86.4343 214.912C82.827 214.909 79.2198 214.91 75.6125 214.92C72.3094 214.929 69.0064 214.928 65.7033 214.919C64.5092 214.918 63.3151 214.92 62.121 214.926C48.4345 214.991 48.4345 214.991 44.3289 211.547C40.903 208.028 40.7115 205.591 40.7126 201.1C40.7097 200.485 40.7068 199.871 40.7039 199.238C40.6952 197.166 40.6922 195.095 40.6892 193.024C40.6843 191.543 40.679 190.063 40.6735 188.583C40.6599 184.552 40.6516 180.521 40.6451 176.491C40.6411 173.974 40.6363 171.456 40.6314 168.939C40.6164 161.068 40.6052 153.196 40.5987 145.324C40.591 136.231 40.5704 127.138 40.5386 118.045C40.515 111.021 40.5033 103.997 40.5007 96.9736C40.4989 92.7766 40.4918 88.5797 40.4721 84.3827C40.4538 80.4336 40.4505 76.4847 40.4586 72.5355C40.459 71.0864 40.454 69.6373 40.4432 68.1883C40.4293 66.2088 40.4349 64.23 40.4452 62.2505C40.4366 61.678 40.428 61.1056 40.4191 60.5158C40.4687 56.5767 41.4089 54.2781 43.9688 51.043C47.262 48.3206 50.9497 47.8916 55.3503 47.8644C55.9101 47.8572 56.47 47.85 57.0468 47.8425C58.8779 47.8221 60.7083 47.8209 62.5396 47.8201C63.8168 47.8096 65.094 47.7979 66.3711 47.785C69.7181 47.7546 73.0649 47.7405 76.412 47.73C79.8332 47.7163 83.2543 47.6869 86.6755 47.6589C93.3774 47.6064 100.079 47.5711 106.781 47.5469C106.924 46.6871 106.924 46.6871 107.07 45.8098C107.201 45.0563 107.333 44.3028 107.468 43.5264C107.596 42.7801 107.723 42.0338 107.855 41.2649C108.303 39.362 108.912 38.0553 109.922 36.3594C99.7526 36.2946 89.5833 36.2449 79.4138 36.2145C74.6918 36.1999 69.9699 36.1801 65.2479 36.1484C60.6916 36.1181 56.1354 36.1013 51.579 36.0941C49.84 36.0889 48.101 36.0788 46.3621 36.0637C43.9277 36.0434 41.494 36.0406 39.0594 36.0419C38.3394 36.0319 37.6193 36.0218 36.8774 36.0114C36.2114 36.0153 35.5453 36.0191 34.8591 36.0231C34.2837 36.0205 33.7084 36.0179 33.1155 36.0153C30.4047 36.5611 29.3062 37.2623 27.4805 39.1563ZM54.1758 60.1329C54.1758 107.204 54.1758 154.276 54.1758 202.773C71.5356 202.773 88.8954 202.773 106.781 202.773C106.781 155.702 106.781 108.631 106.781 60.1329C89.4215 60.1329 72.0617 60.1329 54.1758 60.1329ZM295.219 60.1329C295.219 107.204 295.219 154.276 295.219 202.773C312.579 202.773 329.938 202.773 347.824 202.773C347.824 155.702 347.824 108.631 347.824 60.1329C330.464 60.1329 313.105 60.1329 295.219 60.1329ZM27.4805 239.133C27.4805 249.516 27.4805 259.9 27.4805 270.598C31.7226 274.426 31.7226 274.426 37.1756 274.534C37.7516 274.539 38.3276 274.544 38.9211 274.549C40.8574 274.562 42.7925 274.55 44.7288 274.538C46.1285 274.542 47.5282 274.547 48.9278 274.554C52.7788 274.569 56.6294 274.562 60.4803 274.551C64.6315 274.543 68.7826 274.555 72.9338 274.565C81.0677 274.58 89.2016 274.577 97.3356 274.567C103.945 274.559 110.554 274.558 117.163 274.562C118.103 274.562 119.042 274.563 120.01 274.563C121.919 274.564 123.828 274.566 125.737 274.567C143.647 274.577 161.557 274.565 179.467 274.546C194.844 274.531 210.22 274.533 225.597 274.55C243.442 274.568 261.287 274.576 279.131 274.565C281.033 274.564 282.935 274.563 284.837 274.562C286.241 274.561 286.241 274.561 287.673 274.56C294.276 274.557 300.879 274.562 307.483 274.57C315.527 274.58 323.571 274.577 331.615 274.559C335.721 274.55 339.828 274.546 343.934 274.558C347.69 274.568 351.446 274.562 355.202 274.544C356.564 274.54 357.926 274.542 359.287 274.55C361.134 274.561 362.978 274.55 364.824 274.534C366.365 274.533 366.365 274.533 367.936 274.532C371.185 274.227 371.185 274.227 374.52 270.598C374.52 260.214 374.52 249.831 374.52 239.133C259.997 239.133 145.474 239.133 27.4805 239.133ZM141.328 286.68C141.328 290.372 141.328 294.063 141.328 297.867C180.712 297.867 220.095 297.867 260.672 297.867C260.672 294.175 260.672 290.483 260.672 286.68C221.288 286.68 181.905 286.68 141.328 286.68ZM118.559 320.941C118.559 321.172 118.559 321.403 118.559 321.641C172.97 321.641 227.381 321.641 283.441 321.641C281.887 320.256 281.887 320.256 280.301 318.844C279.908 318.491 279.516 318.138 279.112 317.775C267.728 308.144 253.647 309.175 238.985 309.257C236.149 309.268 233.313 309.252 230.476 309.237C223.772 309.202 217.069 309.209 210.365 309.244C203.498 309.28 196.635 309.246 189.768 309.179C183.828 309.122 177.888 309.107 171.947 309.125C168.419 309.135 164.892 309.131 161.364 309.088C144.395 308.899 131.185 309.37 118.559 320.941ZM100.5 334.227C100.5 337.918 100.5 341.61 100.5 345.414C166.83 345.414 233.16 345.414 301.5 345.414C301.5 341.722 301.5 338.03 301.5 334.227C235.17 334.227 168.84 334.227 100.5 334.227Z" fill="#7D7D7D"/>
<path d="M244.184 35.6601C246.539 37.1896 246.539 37.1896 248.109 39.1562C248.355 41.1227 248.355 41.1227 248.109 42.6523C248.628 42.7821 249.146 42.9119 249.68 43.0456C253.891 44.8425 258.215 47.7375 259.887 51.7421C260.013 53.6878 259.718 55.4669 259.102 57.3359C257.087 59.3226 255.008 59.939 252.035 60.1328C249.135 59.521 247.523 58.2832 245.41 56.5056C243.348 54.8688 242.94 54.5502 240.062 54.4516C237.571 55.359 236.671 55.8558 235.547 58.0351C235.644 60.1462 235.833 61.6024 237.218 63.3448C239.353 64.7733 241.421 64.9338 244.036 65.3332C251.252 66.6263 255.705 69.4225 259.887 74.8163C262.128 79.683 262.491 85.0109 260.798 90.0735C258.643 94.2996 255.548 97.3701 251.25 99.9882C250.473 100.219 249.695 100.45 248.895 100.687C248.652 101.466 248.409 102.245 248.159 103.047C247.324 105.582 247.324 105.582 245.999 106.937C243.384 108.007 241.534 107.991 238.688 107.68C236.479 106.543 236.479 106.543 234.762 104.883C234.567 104.219 234.373 103.556 234.173 102.873C232.843 99.9122 230.814 99.1346 227.852 97.4863C225.592 96.1854 224.261 95.1216 222.984 92.996C222.404 89.9687 222.359 87.5946 224.211 84.955C226.765 83.5557 228.628 83.2537 231.621 83.207C234.006 84.1452 235.325 85.0745 237.019 86.8342C238.684 88.3283 238.684 88.3283 241.485 88.4511C244.163 88.3192 244.163 88.3192 245.705 86.9653C246.771 84.8428 246.869 83.4114 246.539 81.1093C245.142 79.313 244.212 79.0179 241.798 78.4954C240.868 78.3629 239.939 78.2304 238.982 78.0939C232.567 76.9561 227.879 74.9656 223.819 70.3151C220.46 65.6016 219.829 60.4384 220.966 55.0334C222.294 50.7917 224.791 47.666 228.481 44.7499C229.323 44.4038 230.165 44.0577 231.032 43.7011C233.512 42.4968 233.634 42.0868 234.516 39.8117C234.74 39.0857 234.74 39.0857 234.967 38.345C236.504 34.9356 240.687 35.0663 244.184 35.6601Z" fill="white"/>
<path d="M244.969 119.566C246.883 120.746 246.883 120.746 248.109 122.363C248.306 124.636 248.306 124.636 248.109 126.559C248.911 126.602 248.911 126.602 249.729 126.646C253.774 127.719 256.507 130.276 259.053 133.201C260.101 135.398 260.274 136.778 259.887 139.145C258.474 141.032 257.465 142.32 255.176 143.34C252.075 143.52 249.923 143.509 247.324 141.941C246.709 141.336 246.093 140.73 245.459 140.106C243.553 138.248 243.553 138.248 240.945 138.183C238.637 138.386 238.637 138.386 236.332 139.145C235.264 143.113 235.264 143.113 236.872 146.749C239.553 148.28 240.902 148.528 243.987 148.89C249.75 149.583 253.728 151.37 257.415 155.429C261.61 160.864 262.053 165.452 261.457 172.008C260.744 174.133 259.743 175.794 258.316 177.602C257.847 178.236 257.377 178.871 256.893 179.524C254.672 181.559 252.532 182.624 249.68 183.895C249.161 183.895 248.643 183.895 248.109 183.895C248.028 184.659 247.947 185.423 247.864 186.211C247.324 188.789 247.324 188.789 246.392 190.1C244.294 191.26 242.726 191.5 240.258 191.586C237.688 190.75 236.065 190.138 234.467 188.134C233.977 186.691 233.977 186.691 233.977 183.895C233.199 183.7 233.199 183.7 232.406 183.501C228.822 181.972 224.799 179.435 222.984 176.203C222.66 174.064 222.618 172.046 222.984 169.91C225.106 167.489 226.522 167.176 229.904 166.633C233.654 166.758 235.419 168.729 237.991 170.956C239.496 172.238 239.496 172.238 242.073 172.095C244.765 171.129 244.765 171.129 246.539 169.211C246.937 166.829 246.878 165.533 245.509 163.442C242.743 161.839 240.196 161.648 236.97 161.197C230.653 160.119 226.604 157.085 222.984 152.43C220.113 147.915 219.685 142.949 221.199 137.967C222.683 134.354 224.317 131.851 227.695 129.355C228.716 128.555 228.716 128.555 229.756 127.739C231.621 126.559 231.621 126.559 233.977 126.559C234.058 125.794 234.139 125.03 234.222 124.242C234.917 120.923 234.917 120.923 237.117 119.566C240.105 118.679 241.911 118.945 244.969 119.566Z" fill="white"/>
<path d="M170.379 137.047C173.358 138.853 174.159 139.997 174.992 143.121C174.633 147.046 171.61 149.306 168.591 151.943C166.944 153.387 165.325 154.856 163.705 156.325C161.204 158.58 158.7 160.833 156.179 163.071C155.644 163.546 155.109 164.022 154.558 164.512C151.882 166.728 149.88 167.546 146.186 167.474C142.756 166.754 140.584 164.394 138.188 162.219C137.426 161.642 136.665 161.065 135.881 160.471C133.784 158.207 133.477 156.745 133.477 153.828C134.724 151.329 135.609 150.464 138.188 148.934C141.183 148.691 143.003 148.56 145.597 149.982C146.002 150.329 146.407 150.675 146.824 151.031C149.451 150.017 151.143 148.74 153.136 146.921C153.721 146.392 154.306 145.863 154.909 145.319C155.512 144.767 156.115 144.215 156.737 143.646C157.939 142.551 159.144 141.457 160.35 140.365C160.881 139.88 161.412 139.395 161.959 138.894C164.597 136.656 166.816 136.724 170.379 137.047Z" fill="white"/>
<path d="M171.949 54.539C174.029 56.1518 174.273 57.1878 174.795 59.6084C173.655 65.7004 165.913 70.5127 161.1 74.78C159.912 75.8342 158.728 76.8922 157.545 77.9506C156.788 78.6241 156.031 79.2973 155.274 79.9704C154.593 80.5756 153.913 81.1808 153.212 81.8043C151.249 83.4462 150.476 83.8545 147.806 84.1247C142.443 83.6655 138.417 79.7422 135.047 76.2148C133.644 74.1517 133.474 73.4823 133.575 70.9707C134.348 68.217 134.702 67.2296 137.402 65.7265C140.647 65.2591 143.403 65.0488 146.148 66.7943C146.63 67.1342 147.112 67.474 147.609 67.8242C148.041 67.4291 148.472 67.0339 148.916 66.6268C150.879 64.8354 152.851 63.0522 154.823 61.269C155.502 60.6471 156.18 60.0252 156.879 59.3844C157.54 58.7895 158.2 58.1946 158.881 57.5817C159.485 57.0325 160.09 56.4832 160.712 55.9173C164.614 52.9548 167.214 52.821 171.949 54.539Z" fill="white"/>
<path d="M178.835 94.9271C179.52 94.9215 180.206 94.9158 180.912 94.91C182.365 94.9003 183.818 94.8928 185.27 94.8873C187.488 94.8753 189.705 94.8446 191.923 94.8138C193.335 94.8067 194.746 94.8007 196.157 94.796C196.819 94.7838 197.481 94.7715 198.163 94.7589C201.359 94.7694 202.953 94.8674 205.719 96.4234C207.625 98.2131 208.033 98.8315 208.214 101.299C208.068 103.457 207.892 104.54 206.496 106.281C204.306 107.45 202.646 107.86 200.106 107.894C199.159 107.911 199.159 107.911 198.192 107.928C197.517 107.932 196.841 107.935 196.145 107.939C195.094 107.949 195.094 107.949 194.021 107.958C192.541 107.968 191.061 107.975 189.581 107.977C187.319 107.986 185.06 108.02 182.799 108.055C181.359 108.062 179.919 108.067 178.479 108.07C177.468 108.091 177.468 108.091 176.436 108.112C172.958 108.088 171.595 107.983 168.775 105.999C167.269 104.22 166.714 103.521 166.797 101.343C167.238 98.5898 167.238 98.5898 168.71 96.8855C171.978 94.746 174.906 94.9576 178.835 94.9271Z" fill="white"/>
<path d="M191.971 249.856C192.688 249.853 193.405 249.849 194.144 249.846C195.656 249.844 197.169 249.85 198.681 249.865C200.993 249.883 203.301 249.865 205.613 249.842C207.085 249.845 208.557 249.849 210.029 249.856C210.718 249.849 211.407 249.842 212.116 249.835C215.574 249.893 217.057 250.028 219.89 251.944C221.414 253.816 221.414 253.816 221.856 256.264C221.35 259.064 220.504 260.221 218.273 262.207C215.651 263.375 212.703 263.051 209.818 263.073C209.132 263.079 208.447 263.084 207.74 263.09C206.288 263.1 204.835 263.107 203.382 263.113C201.164 263.125 198.947 263.155 196.729 263.186C195.318 263.193 193.907 263.199 192.495 263.204C191.833 263.216 191.172 263.229 190.49 263.241C187.293 263.231 185.699 263.133 182.933 261.577C180.917 259.683 180.626 259.023 180.292 256.395C180.586 253.816 180.586 253.816 182.101 251.936C185.421 249.711 187.917 249.814 191.971 249.856Z" fill="#7D7D7D"/>
<path d="M178.623 178.536C179.34 178.532 180.057 178.529 180.796 178.526C182.309 178.523 183.821 178.53 185.334 178.544C187.645 178.563 189.954 178.544 192.265 178.522C193.737 178.524 195.21 178.529 196.682 178.536C197.37 178.529 198.059 178.522 198.769 178.514C202.226 178.573 203.708 178.707 206.539 180.624C208.066 182.496 208.066 182.496 208.557 184.943C207.945 187.994 206.837 188.988 204.141 190.887C201.236 191.749 198.536 191.699 195.51 191.703C194.895 191.706 194.281 191.708 193.647 191.71C192.347 191.714 191.047 191.716 189.747 191.716C187.763 191.717 185.78 191.73 183.797 191.743C182.533 191.745 181.268 191.746 180.003 191.747C179.413 191.752 178.822 191.757 178.213 191.762C174.236 191.747 171.146 191.475 168.171 189.008C166.818 186.661 166.828 185.097 167.238 182.496C170.485 178.496 173.484 178.483 178.623 178.536Z" fill="white"/>
<path d="M143.929 94.8752C145.479 94.836 145.479 94.836 147.06 94.796C150.375 95.1357 151.617 95.7556 153.891 97.8906C154.793 100.652 155.014 102.107 153.694 104.752C152.32 106.281 152.32 106.281 149.965 107.68C147.297 107.915 147.297 107.915 144.174 107.942C143.148 107.962 142.122 107.982 141.064 108.002C137.798 107.636 136.553 106.938 134.262 104.883C133.142 102.888 133.233 101.502 133.477 99.289C136.502 95.247 138.728 94.9415 143.929 94.8752Z" fill="white"/>
<path d="M144.076 178.65C144.97 178.634 144.97 178.634 145.883 178.618C148.797 178.636 150.293 178.701 152.691 180.27C154.389 182.432 154.624 184.07 154.676 186.691C153.666 188.94 152.983 189.898 150.532 190.969C146.041 192.266 141.386 192.095 136.961 190.712C134.905 189.397 134.088 188.869 133.477 186.691C133.58 184.112 133.788 182.403 135.458 180.267C138.278 178.429 140.667 178.589 144.076 178.65Z" fill="white"/>
</g>
<defs>
<clipPath id="clip0_19_42">
<rect width="402" height="358" fill="white"/>
</clipPath>
</defs>
</svg>
