<svg width="373" height="244" viewBox="0 0 373 244" fill="none" xmlns="http://www.w3.org/2000/svg">
<path d="M25.3233 0.169428C26.3907 0.166161 27.4582 0.162025 28.5257 0.157099C31.453 0.146153 34.3803 0.147692 37.3077 0.151338C40.4672 0.153123 43.6267 0.143413 46.7861 0.135244C52.9739 0.121183 59.1615 0.118147 65.3493 0.119338C70.3794 0.120212 75.4095 0.11767 80.4396 0.112709C81.8888 0.111307 83.338 0.109906 84.7872 0.108506C85.5085 0.107809 86.2298 0.107112 86.973 0.106393C100.614 0.0937684 114.255 0.0944687 127.896 0.0990254C140.372 0.102749 152.847 0.0888408 165.322 0.0667229C178.135 0.0441831 190.948 0.0340572 203.762 0.037144C210.954 0.0386429 218.146 0.0351482 225.338 0.0185131C231.462 0.00447061 237.585 0.00208478 243.708 0.0147055C246.831 0.0208184 249.954 0.0215976 253.077 0.00778842C255.939 -0.00472553 258.8 -0.00168256 261.662 0.0134966C262.695 0.0162883 263.727 0.0135016 264.76 0.00441517C271.596 -0.0516251 277.346 0.531066 282.549 4.94515C286.812 9.09456 288.027 13.3815 287.943 18.9279C287.943 19.4889 287.944 20.0499 287.944 20.6278C287.943 22.4675 287.926 24.3068 287.909 26.1464C287.905 27.4277 287.901 28.7089 287.899 29.9901C287.891 33.3514 287.87 36.7126 287.845 40.0738C287.823 43.5081 287.813 46.9424 287.802 50.3767C287.779 57.1071 287.742 63.8375 287.696 70.5679C287.057 70.6025 286.419 70.6372 285.761 70.6729C284.918 70.7243 284.075 70.7758 283.207 70.8288C282.374 70.8772 281.541 70.9257 280.682 70.9756C275.426 71.5416 271.504 73.4964 268.109 77.2474C265.991 79.7307 265.991 79.7307 264.952 82.6823C264.596 84.5763 264.229 85.6701 263.031 87.2667C261.258 88.4051 259.384 89.2222 257.409 90.022C256.907 90.2273 256.405 90.4326 255.888 90.6441C251.776 92.1518 248.672 92.0789 244.467 90.6247C243.905 90.3845 243.343 90.1442 242.764 89.8967C238.002 88.0915 234.628 88.0451 229.751 89.5628C225.327 91.3372 222.133 94.1519 218.779 97.286C218.228 97.794 217.677 98.302 217.11 98.8254C212.211 103.592 210.354 107.56 210.533 114.154C210.883 116.568 211.763 118.478 212.995 120.617C214.673 123.905 214.451 126.109 213.2 129.468C210.245 136.507 210.245 136.507 206.874 138.211C204.179 139.2 204.179 139.2 201.589 139.899C197.277 141.345 194.941 144.506 192.663 148.05C192.184 149.373 191.705 150.695 191.212 152.058C128.49 152.058 65.7685 152.058 1.14599 152.058C1.07118 129.272 0.99637 106.485 0.919292 83.0085C0.886269 75.816 0.853247 68.6234 0.819224 61.213C0.802842 52.4241 0.802842 52.4241 0.799798 48.3085C0.796421 45.4365 0.782838 42.5647 0.763047 39.6927C0.738115 36.026 0.730718 32.3595 0.735855 28.6926C0.734782 27.3491 0.727619 26.0055 0.713573 24.662C0.57336 10.594 0.57336 10.594 6.04679 5.18611C11.7686 0.131747 17.7642 0.140843 25.3233 0.169428ZM149.136 35.8344C148.191 38.0582 148.191 38.0582 147.654 40.6118C147.474 41.3489 147.474 41.3489 147.289 42.1008C146.88 43.7808 146.49 45.4641 146.099 47.1478C145.806 48.3638 145.513 49.5795 145.218 50.795C144.714 52.8697 144.212 54.9447 143.714 57.0206C142.181 63.3924 140.575 69.7475 138.956 76.1011C138.054 79.6415 137.156 83.1828 136.257 86.7239C135.504 89.6902 134.75 92.6561 133.991 95.6213C133.265 98.4598 132.546 101.3 131.831 104.141C131.564 105.2 131.294 106.259 131.021 107.318C130.644 108.785 130.275 110.254 129.908 111.723C129.697 112.55 129.487 113.377 129.271 114.229C128.299 119.139 128.299 119.139 130.048 123.628C131.966 124.822 133.027 125.34 135.353 125.34C138.419 123.511 139.502 122.101 140.392 118.868C140.626 118.032 140.86 117.196 141.101 116.334C141.363 115.329 141.623 114.323 141.882 113.317C142.033 112.741 142.184 112.165 142.34 111.572C143.642 106.603 144.89 101.623 146.133 96.6415C146.535 95.0337 146.937 93.4259 147.34 91.8182C148.178 88.4664 149.015 85.1143 149.849 81.7618C150.919 77.4693 151.996 73.1785 153.074 68.888C153.906 65.5762 154.732 62.2633 155.557 58.9501C155.952 57.367 156.349 55.7843 156.748 54.2021C157.304 51.9944 157.852 49.7854 158.399 47.5759C158.564 46.9266 158.729 46.2773 158.899 45.6083C159.709 42.3054 160.356 39.2425 160.018 35.8344C158.36 33.784 157.294 32.7025 154.577 32.0771C151.925 32.6877 150.894 33.9307 149.136 35.8344ZM108.155 49.9735C107.532 50.2903 106.91 50.607 106.269 50.9334C105.603 51.2822 104.936 51.6311 104.25 51.9904C103.546 52.3513 102.843 52.7122 102.118 53.084C99.8919 54.2289 97.6723 55.3839 95.4536 56.5409C94.0794 57.2534 92.705 57.9657 91.3305 58.6778C89.2843 59.7391 87.2398 60.8028 85.1993 61.8732C81.4066 63.8624 77.5977 65.8176 73.7611 67.7343C72.9324 68.1516 72.1037 68.5688 71.2499 68.9988C69.6452 69.8056 68.0366 70.6059 66.4237 71.3986C65.6983 71.7651 64.9729 72.1315 64.2255 72.5091C63.5833 72.8281 62.9411 73.1471 62.2795 73.4758C60.3519 74.7628 59.4895 75.953 58.456 77.9153C58.2842 79.6313 58.2842 79.6313 59.1814 81.2551C62.8712 84.5928 67.3845 86.6755 71.901 88.9185C73.7825 89.853 75.6581 90.7972 77.5342 91.741C78.4902 92.2219 79.4466 92.7023 80.4032 93.1823C84.8539 95.4169 89.2743 97.6993 93.6853 99.9995C94.3679 100.354 95.0505 100.709 95.7538 101.074C98.5382 102.524 101.313 103.982 104.043 105.518C109.178 108.587 109.178 108.587 115.041 109.309C117.523 107.704 118.5 106.713 119.121 103.965C118.534 101.37 117.239 100.206 115.041 98.6219C112.477 97.1682 109.821 95.894 107.151 94.6142C105.59 93.8509 104.03 93.0863 102.47 92.3207C101.672 91.9299 100.874 91.5391 100.051 91.1364C96.162 89.2123 92.3143 87.2221 88.4712 85.2211C87.7803 84.8633 87.0893 84.5056 86.3774 84.137C83.026 82.3901 79.7583 80.6027 76.5921 78.5833C77.0397 78.3622 77.4874 78.1412 77.9486 77.9134C86.0969 73.8837 94.2259 69.8289 102.255 65.6C102.852 65.2855 103.449 64.971 104.065 64.647C105.793 63.7322 107.516 62.81 109.237 61.8845C109.887 61.5374 110.537 61.1903 111.207 60.8327C111.853 60.4832 112.499 60.1337 113.165 59.7737C114.042 59.3009 114.042 59.3009 114.937 58.8185C116.416 57.9228 117.555 57.138 118.668 55.8729C119.151 53.5635 119.151 53.5635 118.668 51.1973C116.948 49.4331 115.891 48.6017 113.303 48.3697C111.191 48.5437 109.997 49.0226 108.155 49.9735ZM171.398 49.6526C170.01 51.4048 169.506 52.3676 169.449 54.537C170.958 57.5222 172.685 58.6803 175.802 60.212C176.217 60.4194 176.632 60.6268 177.06 60.8405C178.418 61.5166 179.782 62.1806 181.147 62.8447C182.089 63.3112 183.031 63.7787 183.973 64.2471C185.421 64.9673 186.869 65.6868 188.319 66.4032C191.58 68.0157 194.817 69.6637 198.039 71.3428C198.868 71.7751 199.698 72.2074 200.553 72.6528C202.133 73.478 203.711 74.3045 205.289 75.1325C205.996 75.4998 206.702 75.8671 207.43 76.2455C208.048 76.5692 208.666 76.893 209.303 77.2265C210.737 78.0149 210.737 78.015 212.25 77.9153C210.175 79.991 208.184 81.3063 205.474 82.6119C204.71 82.9844 203.946 83.3569 203.159 83.7407C202.343 84.1328 201.528 84.5249 200.688 84.9288C198.984 85.7606 197.281 86.5935 195.579 87.4284C195.151 87.638 194.723 87.8475 194.282 88.0634C190.135 90.0989 186.041 92.2143 181.963 94.3637C181.038 94.8486 181.038 94.8486 180.095 95.3434C174.099 98.1674 174.099 98.1674 169.766 102.588C169.249 104.647 169.249 104.647 170.31 106.47C171.608 108.107 171.608 108.107 173.801 109.309C176.859 109.094 179.135 108.336 181.801 106.982C182.487 106.637 183.172 106.292 183.879 105.937C184.973 105.374 184.973 105.374 186.089 104.8C186.855 104.412 187.621 104.024 188.41 103.624C190.8 102.409 193.183 101.185 195.565 99.9578C196.29 99.5844 197.015 99.211 197.762 98.8264C201.912 96.6858 206.049 94.5266 210.181 92.3575C212.319 91.2383 214.462 90.1273 216.605 89.0174C217.995 88.2948 219.384 87.5721 220.774 86.8492C221.418 86.5172 222.062 86.1852 222.725 85.8432C223.32 85.5329 223.914 85.2225 224.526 84.9028C225.307 84.4977 225.307 84.4977 226.104 84.0845C227.519 83.2379 228.588 82.4562 229.661 81.2551C230.205 78.9743 230.205 78.9743 229.661 76.5794C226.055 73.2709 221.627 71.216 217.192 68.9815C216.403 68.5793 215.614 68.1771 214.801 67.7627C213.123 66.9078 211.445 66.0544 209.765 65.2034C206.309 63.4521 202.861 61.6879 199.413 59.9235C197.735 59.0658 196.057 58.2096 194.378 57.3551C190.977 55.6221 187.583 53.8871 184.247 52.0505C183.778 51.7942 183.31 51.5379 182.828 51.2739C181.675 50.6378 180.531 49.9906 179.387 49.3421C176.416 48.103 174.083 47.8489 171.398 49.6526Z" fill="white" fill-opacity="0.49"/>
<path d="M287.56 80.4202C288.058 80.4064 288.556 80.3926 289.069 80.3784C292.758 80.3527 295.336 80.9272 298.578 82.591C299.606 83.8904 299.606 83.8904 300.164 85.3463C300.385 85.8733 300.606 86.4002 300.833 86.9432C301.046 87.4908 301.26 88.0384 301.479 88.6026C301.934 89.6931 302.402 90.7788 302.885 91.8589C303.086 92.3393 303.287 92.8198 303.494 93.3148C305.657 96.4835 310.112 97.4221 313.767 98.6219C316.607 99.5595 319.337 100.496 322.033 101.753C324.604 102.918 325.584 102.737 328.321 101.962C329.49 101.4 330.653 100.829 331.812 100.25C335.292 98.6119 338.233 97.6082 342.104 98.6219C344.339 99.9313 346.084 101.54 347.908 103.298C348.391 103.728 348.875 104.159 349.373 104.602C353.574 108.352 353.574 108.352 354.029 111.522C354.029 115.159 352.076 118.035 350.24 121.168C348.88 124.514 349.594 126.884 351.005 130.133C351.374 130.824 351.744 131.516 352.124 132.228C353.813 135.446 355.295 138.649 356.573 142.023C358.788 145.936 363.834 146.559 368.064 147.797C370.57 148.787 371.222 149.279 372.573 151.39C373.04 154.032 372.942 156.69 372.936 159.364C372.956 160.088 372.977 160.813 372.998 161.559C373.012 166.821 373.012 166.821 371.06 169.487C368.677 170.923 366.499 171.709 363.777 172.472C360.309 173.448 358.577 173.97 356.613 176.772C356.097 177.786 355.621 178.818 355.182 179.862C354.934 180.444 354.685 181.026 354.43 181.625C354.178 182.228 353.926 182.831 353.666 183.452C353.16 184.649 352.653 185.846 352.144 187.042C351.923 187.571 351.701 188.099 351.472 188.644C350.809 190.131 350.809 190.131 349.998 191.53C348.916 193.685 349.486 195.202 350.084 197.479C350.682 198.588 351.303 199.687 351.943 200.777C353.762 204.024 354.475 205.869 353.711 209.502C352.265 211.529 350.509 213.152 348.633 214.846C347.995 215.503 347.995 215.503 347.344 216.174C344.67 218.87 342.588 220.536 338.477 220.857C335.407 220.039 332.489 218.852 329.715 217.392C326.722 216.046 325.208 216.025 321.984 217.006C319.438 217.998 316.966 219.121 314.489 220.251C311.964 221.342 309.315 222.087 306.657 222.848C303.854 224.079 303.094 225.776 302.077 228.413C301.528 230.054 300.984 231.696 300.445 233.34C299.012 236.117 297.983 236.941 294.95 238.224C292.502 238.571 290.123 238.568 287.651 238.516C287.009 238.521 286.367 238.526 285.705 238.531C282.196 238.499 279.58 238.42 276.814 236.22C275.344 234.419 274.683 233.072 274.168 230.866C273.359 227.551 272.571 225.156 269.459 223.243C265.669 221.438 261.704 220.041 257.666 218.782C256.433 218.392 255.211 217.972 254.004 217.516C251.103 216.462 249.784 216.043 246.7 216.839C245.94 217.228 245.179 217.617 244.396 218.018C240.518 219.954 237.528 221.332 233.106 220.314C227.764 217.943 223.211 213.136 220.955 208.166C220.955 204.405 222.539 201.737 224.54 198.564C225.921 195.412 225.671 192.673 224.299 189.576C223.86 188.685 223.41 187.799 222.95 186.917C221.372 183.842 220.087 181.001 219.187 177.691C218.486 175.966 217.883 175.053 216.12 174.149C213.612 173.143 211.061 172.383 208.441 171.664C205.757 170.773 204.539 170.14 202.819 168.089C201.784 165.229 201.931 162.485 201.912 159.489C201.897 158.889 201.882 158.289 201.867 157.67C201.83 151.96 201.83 151.96 204.27 149.386C205.681 148.57 205.681 148.57 207.262 148.009C207.835 147.793 208.407 147.576 208.997 147.354C210.196 146.928 211.397 146.509 212.601 146.096C213.174 145.887 213.746 145.678 214.335 145.462C214.857 145.285 215.379 145.107 215.917 144.925C219.08 142.948 220.036 138.872 221.318 135.693C222.217 133.464 223.135 131.346 224.308 129.225C225.647 126.705 225.929 124.709 225.308 122C224.247 119.771 223.092 117.627 221.836 115.485C220.72 112.739 220.725 111.444 221.681 108.641C223.166 106.801 224.893 105.273 226.713 103.715C227.182 103.296 227.651 102.876 228.134 102.444C231.142 99.7812 232.849 98.3297 237.241 98.3297C240.516 98.847 243.329 100.388 246.238 101.818C249.787 103.079 252.232 102.251 255.609 100.968C257.111 100.355 258.602 99.7236 260.093 99.0901C262.238 98.184 264.258 97.3434 266.536 96.7589C268.478 96.2534 269.522 95.8876 271.011 94.6142C272.233 92.4476 273.082 90.1644 273.831 87.8265C274.858 84.683 275.807 83.0318 278.991 81.2551C281.694 80.2529 284.68 80.4398 287.56 80.4202ZM259.585 137.113C253.147 144.368 249.771 153.398 250.698 162.745C252.279 172.557 257.075 180.698 265.669 186.818C274.732 192.412 284.204 194.61 295.041 192.761C305.099 190.467 312.698 185.864 318.451 177.949C323.702 169.632 325.392 161.073 323.472 151.62C320.799 143.041 315.517 135.129 306.912 130.608C290.391 122.573 272.79 124.523 259.585 137.113Z" fill="white" fill-opacity="0.49"/>
<path d="M1.14595 162.077C63.8678 162.077 126.59 162.077 191.212 162.077C191.691 164.943 192.17 167.808 192.663 170.761C195.19 175.192 197.784 178.099 202.819 180.112C203.362 180.193 203.904 180.274 204.463 180.357C206.532 180.675 207.635 180.963 209.348 182.116C211.901 185.784 214.505 190.792 214.375 195.209C213.433 197.446 212.106 199.41 210.799 201.487C186.42 201.517 162.04 201.541 137.661 201.555C134.781 201.556 131.902 201.558 129.023 201.56C128.45 201.56 127.876 201.561 127.286 201.561C118.009 201.567 108.732 201.577 99.4551 201.59C89.9335 201.602 80.412 201.61 70.8904 201.612C65.0169 201.614 59.1433 201.62 53.2697 201.631C48.7631 201.639 44.2566 201.639 39.7499 201.638C37.9032 201.638 36.0565 201.641 34.2097 201.646C31.6864 201.652 29.1633 201.651 26.64 201.647C25.911 201.651 25.182 201.655 24.4309 201.659C17.2184 201.631 11.5535 200.854 6.22405 196.143C-3.59978 185.741 1.14595 180.173 1.14595 162.077Z" fill="white" fill-opacity="0.49"/>
<path d="M115.041 211.506C134.192 211.506 153.344 211.506 173.076 211.506C177.295 220.83 177.295 220.83 179.106 225.616C179.298 226.111 179.489 226.605 179.686 227.114C181.056 230.705 181.056 230.705 181.056 232.212C181.92 232.198 182.784 232.184 183.674 232.17C186.88 232.122 190.087 232.091 193.294 232.066C194.682 232.052 196.07 232.034 197.457 232.011C199.452 231.978 201.447 231.963 203.443 231.951C204.062 231.938 204.682 231.924 205.321 231.91C209.623 231.908 209.623 231.908 211.896 233.442C213.307 235.327 213.65 236.604 213.701 238.892C212.704 240.815 211.706 242.065 210.074 243.568C208.333 243.702 206.676 243.753 204.934 243.746C204.398 243.749 203.863 243.752 203.311 243.755C201.508 243.764 199.705 243.763 197.902 243.762C196.612 243.766 195.323 243.77 194.034 243.775C190.525 243.787 187.017 243.79 183.508 243.791C180.582 243.792 177.656 243.797 174.73 243.802C167.828 243.813 160.926 243.816 154.024 243.815C146.897 243.814 139.771 243.828 132.645 243.849C126.532 243.867 120.42 243.874 114.308 243.873C110.655 243.873 107.001 243.877 103.348 243.891C99.9124 243.904 96.4769 243.904 93.0412 243.894C91.779 243.893 90.5168 243.896 89.2546 243.904C87.5336 243.914 85.8135 243.908 84.0925 243.898C83.591 243.905 83.0896 243.912 82.5729 243.919C80.1892 243.887 78.9499 243.693 77.0245 242.357C75.4136 240.324 75.2379 238.712 75.1412 236.22C75.9407 233.95 76.5348 233.583 78.7685 232.212C80.1318 232.052 80.1318 232.052 81.6793 232.061C82.5504 232.061 82.5504 232.061 83.4392 232.061C84.0627 232.068 84.6862 232.075 85.3286 232.082C85.9696 232.084 86.6106 232.086 87.271 232.088C89.3186 232.095 91.3659 232.112 93.4133 232.129C94.8014 232.136 96.1895 232.142 97.5775 232.147C100.981 232.162 104.383 232.185 107.786 232.212C108.026 230.89 108.265 229.567 108.512 228.205C110.666 222.694 112.821 217.183 115.041 211.506Z" fill="white" fill-opacity="0.49"/>
<path d="M303.579 140.836C308.538 144.741 312.323 150.016 313.087 156.066C313.682 163.529 311.726 169.616 306.558 175.436C302.243 179.624 296.849 182.492 290.55 182.943C282.74 183.096 276.291 181.899 270.127 177.281C267.774 175.139 266.078 172.749 264.482 170.093C264.234 169.69 263.986 169.287 263.731 168.872C260.993 163.477 261.477 156.412 263.348 150.847C266.391 144.288 271.517 140.367 278.413 137.402C287.073 134.384 296.139 135.949 303.579 140.836Z" fill="white"/>
</svg>
